<svg xmlns="http://www.w3.org/2000/svg" viewBox="0 0 1024 1024">
  <defs>
    <linearGradient id="bg" x1="0" y1="0" x2="1" y2="1">
      <stop offset="0" stop-color="#10182a"/>
      <stop offset="1" stop-color="#050912"/>
    </linearGradient>
    <linearGradient id="coin" x1="0" y1="0" x2="1" y2="1">
      <stop offset="0" stop-color="#ffcf5a"/>
      <stop offset="1" stop-color="#f7931a"/>
    </linearGradient>
  </defs>
  <rect width="1024" height="1024" rx="220" fill="url(#bg)"/>
  <path d="M218 362 156 174l224 118M806 362l62-188-224 118" fill="#1d2d4d" stroke="#5f81b7" stroke-width="28" stroke-linejoin="round"/>
  <path d="M198 520c0-202 141-316 314-316s314 114 314 316v80c0 166-126 258-314 258s-314-92-314-258z" fill="#182745" stroke="#5f81b7" stroke-width="30"/>
  <circle cx="512" cy="526" r="212" fill="url(#coin)" stroke="#ffdc7a" stroke-width="24"/>
  <circle cx="332" cy="420" r="34" fill="#9bc6ff"/>
  <circle cx="692" cy="420" r="34" fill="#9bc6ff"/>
  <path d="M449 373h96c78 0 122 37 122 94 0 39-21 68-59 83 48 16 73 49 73 97 0 66-50 105-136 105h-96zm54 55v98h44c43 0 65-16 65-49s-22-49-65-49zm0 150v119h50c48 0 72-20 72-59 0-40-24-60-72-60z" fill="#fff"/>
  <path d="M493 336v69M562 336v69M493 718v69M562 718v69" stroke="#fff" stroke-width="28" stroke-linecap="round"/>
  <path d="M440 842c48 30 96 44 144 44" fill="none" stroke="#9bc6ff" stroke-width="24" stroke-linecap="round"/>
</svg>
